<svg width="24" height="24" fill="none" xmlns="http://www.w3.org/2000/svg"><path d="M11.892 22.978l-.112-.994.112.994zm3.086-3.086l.994.112-.994-.112zM1.381 21.089l-.89.454.89-.454zm1.53 1.53l-.454.89.454-.89zm6.47-5.53l-.89.454.89-.454zm13.238 0l.89.454-.89-.454zm-1.53 1.53l.454.89-.454-.89zm0-17.238l.454-.89-.454.89zm1.53 1.53l.89-.454-.89.454zM2.91 5.381l-.454-.89.454.89zm9.197-4.359l-.112-.994.112.994zM9.022 4.108l-.994-.112.994.112zM13 2h4.4V0H13v2zm9 4.6v6.8h2V6.6h-2zm-12 6.8V5H8v8.4h2zM9 4H6.6v2H9V4zm-9 6.6v6.8h2v-6.8H0zM6.6 24H11v-2H6.6v2zm10.8-6H15v2h2.4v-2zM15 18h-.4v2h.4v-2zm-4 6c.437 0 .739.002 1.004-.028l-.224-1.988c-.125.014-.288.016-.78.016v2zm3-5c0 .492-.002.654-.016.78l1.988.224c.03-.265.028-.567.028-1.004h-2zm-1.996 4.972a4.5 4.5 0 003.968-3.968l-1.988-.224a2.5 2.5 0 01-2.204 2.204l.224 1.988zM0 17.4c0 .964 0 1.746.051 2.38.053.646.165 1.224.44 1.763l1.781-.908c-.106-.21-.185-.496-.228-1.018C2.001 19.084 2 18.397 2 17.4H0zM6.6 22c-.997 0-1.684 0-2.217-.044-.522-.043-.808-.122-1.018-.229l-.908 1.782c.539.275 1.117.387 1.763.44.634.052 1.416.051 2.38.051v-2zm-6.11-.457a4.5 4.5 0 001.967 1.966l.908-1.782a2.5 2.5 0 01-1.093-1.092l-1.782.908zM8 13.4c0 .964 0 1.746.051 2.38.053.646.165 1.224.44 1.763l1.782-.908c-.107-.21-.186-.496-.229-1.018-.043-.533-.044-1.22-.044-2.217H8zm6.6 4.6c-.997 0-1.684 0-2.217-.044-.522-.043-.808-.122-1.018-.229l-.908 1.782c.539.275 1.117.387 1.763.44.634.052 1.416.051 2.38.051v-2zm-6.11-.457a4.5 4.5 0 001.967 1.966l.908-1.782a2.5 2.5 0 01-1.092-1.092l-1.783.908zM22 13.4c0 .997 0 1.684-.044 2.217-.043.522-.122.808-.229 1.018l1.782.908c.275-.539.387-1.117.44-1.763.052-.634.051-1.416.051-2.38h-2zM17.4 20c.964 0 1.746 0 2.38-.051.646-.053 1.224-.165 1.763-.44l-.908-1.782c-.21.107-.496.186-1.018.229-.533.043-1.22.044-2.217.044v2zm4.328-3.365a2.5 2.5 0 01-1.093 1.092l.908 1.782a4.5 4.5 0 001.966-1.966l-1.782-.908zM17.4 2c.997 0 1.684 0 2.217.044.522.043.808.122 1.018.228L21.543.49C21.004.216 20.426.104 19.78.051 19.146-.001 18.364 0 17.4 0v2zM24 6.6c0-.964 0-1.746-.051-2.38-.053-.646-.165-1.224-.44-1.763l-1.782.908c.107.21.186.496.229 1.018.043.533.044 1.22.044 2.217h2zm-3.365-4.328a2.5 2.5 0 011.092 1.093l1.782-.908A4.5 4.5 0 0021.543.49l-.908 1.782zM6.6 4c-.964 0-1.746 0-2.38.051-.646.053-1.224.165-1.763.44l.908 1.781c.21-.106.496-.185 1.018-.228C4.916 6.001 5.603 6 6.6 6V4zM2 10.6c0-.997 0-1.684.044-2.217.043-.522.122-.808.228-1.018L.49 6.457C.216 6.996.104 7.574.051 8.22-.001 8.854 0 9.636 0 10.6h2zm.457-6.11A4.5 4.5 0 00.49 6.457l1.782.908a2.5 2.5 0 011.093-1.093L2.457 4.49zM13 0c-.437 0-.739-.002-1.004.028l.224 1.988c.125-.014.288-.016.78-.016V0zm-3 5c0-.492.002-.654.016-.78l-1.988-.224C7.998 4.261 8 4.563 8 5h2zM11.996.028a4.5 4.5 0 00-3.968 3.968l1.988.224a2.5 2.5 0 012.204-2.204L11.996.028z" fill="#BCBECC"/></svg>