<svg width="24" height="22" fill="none" xmlns="http://www.w3.org/2000/svg"><path d="M1 21H0a1 1 0 001.555.832L1 21zm6.446-3.946l.175.985-.175-.985zm-1.857.887l.555.832-.555-.832zm17.03-2.852l.89.454-.89-.454zm-1.53 1.53l-.454-.892.454.892zm0-15.238l.454-.89-.454.89zm1.53 1.53l.89-.454-.89.454zM2 21V6.6H0V21h2zM6.6 2h10.8V0H6.6v2zM22 6.6v4.8h2V6.6h-2zM17.4 16H8.696v2H17.4v-2zM5.035 17.108l-4.59 3.06 1.11 1.664 4.589-3.06-1.11-1.663zM8.695 16c-.595 0-1.013-.004-1.425.07l.351 1.969c.198-.035.41-.039 1.075-.039v-2zm-2.551 2.773c.553-.37.732-.484.916-.564l-.8-1.833c-.384.167-.73.402-1.225.732l1.109 1.665zM7.27 16.07a4.501 4.501 0 00-1.01.306l.8 1.833c.18-.079.368-.136.561-.17l-.351-1.97zM22 11.4c0 .997 0 1.684-.044 2.217-.043.522-.122.808-.229 1.018l1.782.908c.275-.539.387-1.117.44-1.763.052-.634.051-1.416.051-2.38h-2zM17.4 18c.964 0 1.746 0 2.38-.051.646-.053 1.224-.165 1.763-.44l-.908-1.782c-.21.107-.496.186-1.018.229-.533.043-1.22.044-2.217.044v2zm4.328-3.365a2.5 2.5 0 01-1.093 1.092l.908 1.782a4.5 4.5 0 001.966-1.966l-1.782-.908zM17.4 2c.997 0 1.684 0 2.217.044.522.043.808.122 1.018.228L21.543.49C21.004.216 20.426.104 19.78.051 19.146-.001 18.364 0 17.4 0v2zM24 6.6c0-.964 0-1.746-.051-2.38-.053-.646-.165-1.224-.44-1.763l-1.782.908c.107.21.186.496.229 1.018.043.533.044 1.22.044 2.217h2zm-3.365-4.328a2.5 2.5 0 011.092 1.093l1.782-.908A4.5 4.5 0 0021.543.49l-.908 1.782zM2 6.6c0-.997 0-1.684.044-2.217.043-.522.122-.808.228-1.018L.49 2.457C.216 2.996.104 3.574.051 4.22-.001 4.854 0 5.636 0 6.6h2zM6.6 0c-.964 0-1.746 0-2.38.051-.646.053-1.224.165-1.763.44l.908 1.781c.21-.106.496-.185 1.018-.228C4.916 2.001 5.603 2 6.6 2V0zM2.272 3.365a2.5 2.5 0 011.093-1.093L2.457.49A4.5 4.5 0 00.49 2.457l1.782.908z" fill="#BCBECC"/></svg>