<svg width="11" height="15" fill="none" xmlns="http://www.w3.org/2000/svg"><path d="M5.304.004C2.564.104.289 2.32.026 5.149a5.949 5.949 0 00.11 1.818c.085.393.212.774.37 1.132.552 1.354 1.827 3.62 4.688 6.087a.465.465 0 00.61 0c2.861-2.463 4.136-4.73 4.69-6.09.161-.358.286-.736.37-1.132.026-.114.037-.179.037-.179.065-.352.099-.712.099-1.082C11 2.484 8.43-.11 5.304.003zm.195 8.538c-1.476 0-2.671-1.24-2.671-2.771S4.023 3 5.499 3C6.975 3 8.17 4.24 8.17 5.77S6.975 8.54 5.5 8.54z" fill="#fff"/></svg>