<svg width="24" height="22" fill="none" xmlns="http://www.w3.org/2000/svg"><path d="M23.983 6.985a2.773 2.773 0 00-.02-.191C23.627 3.002 20.838 0 17.217 0c-2.097 0-4.013.99-5.268 2.595C10.723.979 8.878 0 6.792 0 3.185 0 .403 2.981.043 6.816l-.02.163c-.06.619-.01 1.44.227 2.44.503 2.125 1.679 4.06 3.338 5.56l7.723 6.773c.376.33.94.33 1.317.003l7.78-6.762c1.834-1.904 2.924-3.616 3.356-5.59.217-.99.267-1.806.22-2.418zm-2.172 1.993c-.34 1.552-1.244 2.973-2.781 4.573l-7.056 6.127-7.055-6.187c-1.353-1.224-2.315-2.806-2.723-4.53-.185-.783-.223-1.383-.183-1.787l.019-.143c.257-2.888 2.255-5.037 4.761-5.037 1.866 0 3.454 1.135 4.225 2.958.344.813 1.498.813 1.842 0 .756-1.786 2.457-2.958 4.357-2.958 2.507 0 4.505 2.15 4.762 5.038l.011.109c.033.422-.005 1.042-.18 1.837z" fill="#fff"/></svg>