<svg width="100" height="28" fill="none" xmlns="http://www.w3.org/2000/svg"><path d="M35.702 21.137h10.331v-3.346h-6.845V5.338h-3.486v15.799z" fill="url(#paint0_linear)"/><path d="M35.702 21.137h10.331v-3.346h-6.845V5.338h-3.486v15.799z" fill="url(#paint1_linear)"/><path d="M35.702 21.137h10.331v-3.346h-6.845V5.338h-3.486v15.799z" fill="url(#paint2_linear)"/><path d="M35.702 21.137h10.331v-3.346h-6.845V5.338h-3.486v15.799z" fill="#000"/><path d="M35.702 21.137h10.331v-3.346h-6.845V5.338h-3.486v15.799z" fill="#fff"/><path d="M58.794 10.125l4.209 11.012h3.359l4.209-11.012h-3.487l-2.402 7.179-2.402-7.18h-3.486z" fill="url(#paint3_linear)"/><path d="M58.794 10.125l4.209 11.012h3.359l4.209-11.012h-3.487l-2.402 7.179-2.402-7.18h-3.486z" fill="url(#paint4_linear)"/><path d="M58.794 10.125l4.209 11.012h3.359l4.209-11.012h-3.487l-2.402 7.179-2.402-7.18h-3.486z" fill="url(#paint5_linear)"/><path d="M58.794 10.125l4.209 11.012h3.359l4.209-11.012h-3.487l-2.402 7.179-2.402-7.18h-3.486z" fill="#000"/><path d="M58.794 10.125l4.209 11.012h3.359l4.209-11.012h-3.487l-2.402 7.179-2.402-7.18h-3.486z" fill="#fff"/><path d="M75.135 10.125h-3.253v11.012h3.253V10.125zm-3.38-2.986c0 .953.85 1.8 1.807 1.8s1.807-.847 1.807-1.8c0-.953-.85-1.8-1.807-1.8s-1.807.847-1.807 1.8z" fill="url(#paint6_linear)"/><path d="M75.135 10.125h-3.253v11.012h3.253V10.125zm-3.38-2.986c0 .953.85 1.8 1.807 1.8s1.807-.847 1.807-1.8c0-.953-.85-1.8-1.807-1.8s-1.807.847-1.807 1.8z" fill="url(#paint7_linear)"/><path d="M75.135 10.125h-3.253v11.012h3.253V10.125zm-3.38-2.986c0 .953.85 1.8 1.807 1.8s1.807-.847 1.807-1.8c0-.953-.85-1.8-1.807-1.8s-1.807.847-1.807 1.8z" fill="url(#paint8_linear)"/><path d="M75.135 10.125h-3.253v11.012h3.253V10.125zm-3.38-2.986c0 .953.85 1.8 1.807 1.8s1.807-.847 1.807-1.8c0-.953-.85-1.8-1.807-1.8s-1.807.847-1.807 1.8z" fill="#000"/><path d="M75.135 10.125h-3.253v11.012h3.253V10.125zm-3.38-2.986c0 .953.85 1.8 1.807 1.8s1.807-.847 1.807-1.8c0-.953-.85-1.8-1.807-1.8s-1.807.847-1.807 1.8z" fill="#fff"/><path d="M83.898 10.019c-1.934 0-3.252 1.186-3.252 1.186l-.49-1.08h-2.402v11.012h3.253v-5.866c0-1.44.85-2.266 2.04-2.266 1.212 0 2.041.826 2.041 2.266v5.866h3.253v-6.46c0-2.88-1.807-4.658-4.443-4.658z" fill="url(#paint9_linear)"/><path d="M83.898 10.019c-1.934 0-3.252 1.186-3.252 1.186l-.49-1.08h-2.402v11.012h3.253v-5.866c0-1.44.85-2.266 2.04-2.266 1.212 0 2.041.826 2.041 2.266v5.866h3.253v-6.46c0-2.88-1.807-4.658-4.443-4.658z" fill="url(#paint10_linear)"/><path d="M83.898 10.019c-1.934 0-3.252 1.186-3.252 1.186l-.49-1.08h-2.402v11.012h3.253v-5.866c0-1.44.85-2.266 2.04-2.266 1.212 0 2.041.826 2.041 2.266v5.866h3.253v-6.46c0-2.88-1.807-4.658-4.443-4.658z" fill="url(#paint11_linear)"/><path d="M83.898 10.019c-1.934 0-3.252 1.186-3.252 1.186l-.49-1.08h-2.402v11.012h3.253v-5.866c0-1.44.85-2.266 2.04-2.266 1.212 0 2.041.826 2.041 2.266v5.866h3.253v-6.46c0-2.88-1.807-4.658-4.443-4.658z" fill="#000"/><path d="M83.898 10.019c-1.934 0-3.252 1.186-3.252 1.186l-.49-1.08h-2.402v11.012h3.253v-5.866c0-1.44.85-2.266 2.04-2.266 1.212 0 2.041.826 2.041 2.266v5.866h3.253v-6.46c0-2.88-1.807-4.658-4.443-4.658z" fill="#fff"/><path d="M95.43 9.892c-2.87 0-4.443 1.546-4.805 3.706l3.253.233s.234-1.06 1.445-1.06c.83 0 1.446.594 1.446 1.674-5.06 0-6.611 1.546-6.611 3.706 0 1.8 1.318 3.113 3.72 3.113 1.913 0 3.252-1.207 3.252-1.207l.468 1.08H100v-6.692c0-2.647-1.913-4.553-4.57-4.553zm-.702 8.979c-.85 0-1.34-.487-1.34-1.08 0-.847.617-1.44 3.38-1.44v.487c0 1.186-.85 2.033-2.04 2.033z" fill="url(#paint12_linear)"/><path d="M95.43 9.892c-2.87 0-4.443 1.546-4.805 3.706l3.253.233s.234-1.06 1.445-1.06c.83 0 1.446.594 1.446 1.674-5.06 0-6.611 1.546-6.611 3.706 0 1.8 1.318 3.113 3.72 3.113 1.913 0 3.252-1.207 3.252-1.207l.468 1.08H100v-6.692c0-2.647-1.913-4.553-4.57-4.553zm-.702 8.979c-.85 0-1.34-.487-1.34-1.08 0-.847.617-1.44 3.38-1.44v.487c0 1.186-.85 2.033-2.04 2.033z" fill="url(#paint13_linear)"/><path d="M95.43 9.892c-2.87 0-4.443 1.546-4.805 3.706l3.253.233s.234-1.06 1.445-1.06c.83 0 1.446.594 1.446 1.674-5.06 0-6.611 1.546-6.611 3.706 0 1.8 1.318 3.113 3.72 3.113 1.913 0 3.252-1.207 3.252-1.207l.468 1.08H100v-6.692c0-2.647-1.913-4.553-4.57-4.553zm-.702 8.979c-.85 0-1.34-.487-1.34-1.08 0-.847.617-1.44 3.38-1.44v.487c0 1.186-.85 2.033-2.04 2.033z" fill="url(#paint14_linear)"/><path d="M95.43 9.892c-2.87 0-4.443 1.546-4.805 3.706l3.253.233s.234-1.06 1.445-1.06c.83 0 1.446.594 1.446 1.674-5.06 0-6.611 1.546-6.611 3.706 0 1.8 1.318 3.113 3.72 3.113 1.913 0 3.252-1.207 3.252-1.207l.468 1.08H100v-6.692c0-2.647-1.913-4.553-4.57-4.553zm-.702 8.979c-.85 0-1.34-.487-1.34-1.08 0-.847.617-1.44 3.38-1.44v.487c0 1.186-.85 2.033-2.04 2.033z" fill="#000"/><path d="M95.43 9.892c-2.87 0-4.443 1.546-4.805 3.706l3.253.233s.234-1.06 1.445-1.06c.83 0 1.446.594 1.446 1.674-5.06 0-6.611 1.546-6.611 3.706 0 1.8 1.318 3.113 3.72 3.113 1.913 0 3.252-1.207 3.252-1.207l.468 1.08H100v-6.692c0-2.647-1.913-4.553-4.57-4.553zm-.702 8.979c-.85 0-1.34-.487-1.34-1.08 0-.847.617-1.44 3.38-1.44v.487c0 1.186-.85 2.033-2.04 2.033z" fill="#fff"/><path fill-rule="evenodd" clip-rule="evenodd" d="M58.288 15.663c0 3.07-2.498 5.559-5.58 5.559s-5.58-2.49-5.58-5.56c0-3.07 2.498-5.559 5.58-5.559s5.58 2.49 5.58 5.56zm-4.844-2.682a2.791 2.791 0 011.934 1.873 2.785 2.785 0 01-2.67 3.588 2.785 2.785 0 01-2.79-2.78 2.784 2.784 0 012.79-2.779c.255 0 .502.034.736.098z" fill="url(#paint15_linear)"/><path fill-rule="evenodd" clip-rule="evenodd" d="M58.288 15.663c0 3.07-2.498 5.559-5.58 5.559s-5.58-2.49-5.58-5.56c0-3.07 2.498-5.559 5.58-5.559s5.58 2.49 5.58 5.56zm-4.844-2.682a2.791 2.791 0 011.934 1.873 2.785 2.785 0 01-2.67 3.588 2.785 2.785 0 01-2.79-2.78 2.784 2.784 0 012.79-2.779c.255 0 .502.034.736.098z" fill="url(#paint16_linear)"/><path fill-rule="evenodd" clip-rule="evenodd" d="M58.288 15.663c0 3.07-2.498 5.559-5.58 5.559s-5.58-2.49-5.58-5.56c0-3.07 2.498-5.559 5.58-5.559s5.58 2.49 5.58 5.56zm-4.844-2.682a2.791 2.791 0 011.934 1.873 2.785 2.785 0 01-2.67 3.588 2.785 2.785 0 01-2.79-2.78 2.784 2.784 0 012.79-2.779c.255 0 .502.034.736.098z" fill="url(#paint17_linear)"/><path fill-rule="evenodd" clip-rule="evenodd" d="M58.288 15.663c0 3.07-2.498 5.559-5.58 5.559s-5.58-2.49-5.58-5.56c0-3.07 2.498-5.559 5.58-5.559s5.58 2.49 5.58 5.56zm-4.844-2.682a2.791 2.791 0 011.934 1.873 2.785 2.785 0 01-2.67 3.588 2.785 2.785 0 01-2.79-2.78 2.784 2.784 0 012.79-2.779c.255 0 .502.034.736.098z" fill="#000"/><path fill-rule="evenodd" clip-rule="evenodd" d="M58.288 15.663c0 3.07-2.498 5.559-5.58 5.559s-5.58-2.49-5.58-5.56c0-3.07 2.498-5.559 5.58-5.559s5.58 2.49 5.58 5.56zm-4.844-2.682a2.791 2.791 0 011.934 1.873 2.785 2.785 0 01-2.67 3.588 2.785 2.785 0 01-2.79-2.78 2.784 2.784 0 012.79-2.779c.255 0 .502.034.736.098z" fill="#fff"/><path fill-rule="evenodd" clip-rule="evenodd" d="M26.643 14.185c0 7.33-5.964 13.272-13.322 13.272C5.965 27.457 0 21.515 0 14.185S5.964.914 13.322.914c7.357 0 13.321 5.942 13.321 13.271zM15.079 7.783c2.206.6 3.955 2.3 4.617 4.471.186.611.286 1.26.286 1.931 0 3.665-2.982 6.636-6.66 6.636-3.68 0-6.661-2.97-6.661-6.636 0-3.664 2.982-6.635 6.66-6.635a6.7 6.7 0 011.758.233z" fill="url(#paint18_linear)"/><path d="M13.305 27.458a13.277 13.277 0 006.351-1.594c2.254-1.511 2.8-4.047 2.8-5.229 0-2.137-1.358-4.091-2.669-4.613a3.411 3.411 0 00-4.764 4.568C9.135 22.149 3.235 16.745 3.996 10.394c.384-3.2 2.57-8.72 9.268-9.479A13.325 13.325 0 00.94 9.281 13.193 13.193 0 000 14.186C0 21.51 5.955 27.45 13.305 27.458z" fill="url(#paint19_linear)"/><defs><linearGradient id="paint0_linear" x1="52.708" y1="10.103" x2="52.708" y2="21.222" gradientUnits="userSpaceOnUse"><stop stop-color="#FF1C1C"/><stop offset="1" stop-color="#9104FF"/></linearGradient><linearGradient id="paint1_linear" x1="52.708" y1="10.103" x2="52.708" y2="21.222" gradientUnits="userSpaceOnUse"><stop stop-color="#FF371C"/><stop offset="1" stop-color="#7304FF"/></linearGradient><linearGradient id="paint2_linear" x1="56.978" y1="10.804" x2="48.135" y2="20.723" gradientUnits="userSpaceOnUse"><stop stop-color="#C751FF"/><stop offset="1" stop-color="#3586FF"/></linearGradient><linearGradient id="paint3_linear" x1="52.708" y1="10.103" x2="52.708" y2="21.222" gradientUnits="userSpaceOnUse"><stop stop-color="#FF1C1C"/><stop offset="1" stop-color="#9104FF"/></linearGradient><linearGradient id="paint4_linear" x1="52.708" y1="10.103" x2="52.708" y2="21.222" gradientUnits="userSpaceOnUse"><stop stop-color="#FF371C"/><stop offset="1" stop-color="#7304FF"/></linearGradient><linearGradient id="paint5_linear" x1="56.978" y1="10.804" x2="48.135" y2="20.723" gradientUnits="userSpaceOnUse"><stop stop-color="#C751FF"/><stop offset="1" stop-color="#3586FF"/></linearGradient><linearGradient id="paint6_linear" x1="52.708" y1="10.103" x2="52.708" y2="21.222" gradientUnits="userSpaceOnUse"><stop stop-color="#FF1C1C"/><stop offset="1" stop-color="#9104FF"/></linearGradient><linearGradient id="paint7_linear" x1="52.708" y1="10.103" x2="52.708" y2="21.222" gradientUnits="userSpaceOnUse"><stop stop-color="#FF371C"/><stop offset="1" stop-color="#7304FF"/></linearGradient><linearGradient id="paint8_linear" x1="56.978" y1="10.804" x2="48.135" y2="20.723" gradientUnits="userSpaceOnUse"><stop stop-color="#C751FF"/><stop offset="1" stop-color="#3586FF"/></linearGradient><linearGradient id="paint9_linear" x1="52.708" y1="10.103" x2="52.708" y2="21.222" gradientUnits="userSpaceOnUse"><stop stop-color="#FF1C1C"/><stop offset="1" stop-color="#9104FF"/></linearGradient><linearGradient id="paint10_linear" x1="52.708" y1="10.103" x2="52.708" y2="21.222" gradientUnits="userSpaceOnUse"><stop stop-color="#FF371C"/><stop offset="1" stop-color="#7304FF"/></linearGradient><linearGradient id="paint11_linear" x1="56.978" y1="10.804" x2="48.135" y2="20.723" gradientUnits="userSpaceOnUse"><stop stop-color="#C751FF"/><stop offset="1" stop-color="#3586FF"/></linearGradient><linearGradient id="paint12_linear" x1="52.708" y1="10.103" x2="52.708" y2="21.222" gradientUnits="userSpaceOnUse"><stop stop-color="#FF1C1C"/><stop offset="1" stop-color="#9104FF"/></linearGradient><linearGradient id="paint13_linear" x1="52.708" y1="10.103" x2="52.708" y2="21.222" gradientUnits="userSpaceOnUse"><stop stop-color="#FF371C"/><stop offset="1" stop-color="#7304FF"/></linearGradient><linearGradient id="paint14_linear" x1="56.978" y1="10.804" x2="48.135" y2="20.723" gradientUnits="userSpaceOnUse"><stop stop-color="#C751FF"/><stop offset="1" stop-color="#3586FF"/></linearGradient><linearGradient id="paint15_linear" x1="52.708" y1="10.103" x2="52.708" y2="21.222" gradientUnits="userSpaceOnUse"><stop stop-color="#FF1C1C"/><stop offset="1" stop-color="#9104FF"/></linearGradient><linearGradient id="paint16_linear" x1="52.708" y1="10.103" x2="52.708" y2="21.222" gradientUnits="userSpaceOnUse"><stop stop-color="#FF371C"/><stop offset="1" stop-color="#7304FF"/></linearGradient><linearGradient id="paint17_linear" x1="56.978" y1="10.804" x2="48.135" y2="20.723" gradientUnits="userSpaceOnUse"><stop stop-color="#C751FF"/><stop offset="1" stop-color="#3586FF"/></linearGradient><linearGradient id="paint18_linear" x1="24.93" y1="9.066" x2="5.251" y2="16.224" gradientUnits="userSpaceOnUse"><stop stop-color="#fff"/><stop offset="1" stop-color="#F2F2F2"/></linearGradient><linearGradient id="paint19_linear" x1="1.998" y1="6.034" x2="18.864" y2="25.151" gradientUnits="userSpaceOnUse"><stop stop-color="#F2F2F2"/><stop offset="1" stop-color="#C4C4C4"/></linearGradient></defs></svg>