<svg width="26" height="25" fill="none" xmlns="http://www.w3.org/2000/svg"><path d="M18 6.5c0 2.298-1.078 4.165-1.818 5.176-.395.54-.603 1.218-.472 1.874l.12.596c.105.528.483.958.988 1.145 1.694.625 5.526 2.167 6.682 3.709.564.752.845 1.646.977 2.468.231 1.448-1.052 2.532-2.518 2.532H4.04c-1.466 0-2.749-1.084-2.518-2.532.132-.822.413-1.716.977-2.468 1.157-1.542 4.988-3.084 6.682-3.71a1.55 1.55 0 00.989-1.144l.12-.596c.13-.656-.078-1.334-.473-1.874C9.078 10.665 8 8.798 8 6.5 8 3 10.5 1 13 1s5 2 5 5.5z" stroke="#BCBECC" stroke-width="2"/></svg>