<svg width="16" height="24" fill="none" xmlns="http://www.w3.org/2000/svg"><path fill-rule="evenodd" clip-rule="evenodd" d="M8 0a1 1 0 01.774.367l4 4.889a1 1 0 11-1.548 1.266L8.89 3.666v11.556H7.111V3.666L4.774 6.522a1 1 0 01-1.548-1.266l4-4.89A1 1 0 018 0zm5.778 9.889h-3.111V8.11h3.11c1.228 0 2.223.995 2.223 2.222v11.111a2.222 2.222 0 01-2.222 2.223H2.222A2.222 2.222 0 010 21.444v-11.11C0 9.105.995 8.11 2.222 8.11h3.111v1.78h-3.11a.444.444 0 00-.445.444v11.111c0 .246.199.445.444.445h11.556a.444.444 0 00.444-.445v-11.11a.444.444 0 00-.444-.445z" fill="#fff"/></svg>