<svg width="16" height="16" fill="none" xmlns="http://www.w3.org/2000/svg"><g clip-path="url(#clip0)" fill="#fff"><path d="M1.5 12V8.5l4.983 2.683c.554.299.832.448 1.124.507a2 2 0 00.786 0c.292-.059.57-.208 1.124-.507L14.5 8.5V12l-4.983 2.683c-.554.299-.832.448-1.124.507a2 2 0 01-.786 0c-.292-.059-.57-.208-1.124-.507L1.5 12z"/><path d="M6.503 2.293l-5 2.646c-.65.344-.974.516-1.08.746a.75.75 0 000 .63c.106.23.43.402 1.08.746l5 2.646c.547.29.821.435 1.11.492a2 2 0 00.774 0c.289-.057.563-.202 1.11-.492l5-2.646c.65-.344.974-.516 1.08-.746a.75.75 0 000-.63c-.106-.23-.43-.402-1.08-.746l-5-2.646c-.547-.29-.821-.435-1.11-.492a2 2 0 00-.774 0c-.289.057-.563.202-1.11.492z"/></g><defs><clipPath id="clip0"><path fill="#fff" d="M0 0h16v16H0z"/></clipPath></defs></svg>