<svg width="62" height="66" fill="none" xmlns="http://www.w3.org/2000/svg"><path fill-rule="evenodd" clip-rule="evenodd" d="M38.307.984l-.065-.011c-2.15-.38-3.855-.68-5.25-.81C31.568.03 30.337.06 29.154.422a9.5 9.5 0 00-4.81 3.367c-.744.988-1.193 2.135-1.556 3.52-.354 1.354-.655 3.059-1.034 5.21l-.012.065-3.89 22.06-.01.065c-.38 2.15-.68 3.855-.81 5.25-.134 1.425-.104 2.656.258 3.839a9.5 9.5 0 003.368 4.81c.988.744 2.134 1.193 3.52 1.556 1.354.354 3.058.655 5.21 1.034l.064.012 10.242 1.806.065.011c2.151.38 3.856.68 5.25.81 1.425.133 2.656.103 3.84-.259a9.5 9.5 0 004.81-3.367c.744-.988 1.193-2.135 1.555-3.52.355-1.354.655-3.059 1.035-5.21l.011-.065 3.89-22.06.011-.065c.38-2.15.68-3.856.81-5.25.133-1.425.103-2.656-.258-3.839a9.5 9.5 0 00-3.368-4.81c-.988-.744-2.135-1.193-3.52-1.556-1.354-.354-3.058-.655-5.21-1.034l-.065-.012L38.307.984zM30.03 3.291c.654-.2 1.444-.257 2.684-.14 1.258.116 2.842.395 5.072.788l10.242 1.806c2.231.393 3.815.674 5.037.993 1.204.316 1.928.64 2.474 1.05a6.5 6.5 0 012.304 3.291c.2.654.256 1.444.14 2.684-.117 1.258-.395 2.842-.788 5.072l-3.89 22.06c-.394 2.23-.674 3.814-.994 5.036-.315 1.205-.639 1.928-1.05 2.474a6.5 6.5 0 01-3.29 2.304c-.654.2-1.444.257-2.684.14-1.258-.116-2.842-.394-5.073-.788l-10.242-1.806c-2.23-.393-3.814-.674-5.036-.993-1.205-.316-1.928-.64-2.474-1.05a6.5 6.5 0 01-2.304-3.291c-.2-.654-.256-1.444-.14-2.684.117-1.258.395-2.842.788-5.072l3.89-22.06c.393-2.23.674-3.814.993-5.036.316-1.205.64-1.928 1.05-2.474A6.5 6.5 0 0130.03 3.29zm-16.58 11.5l-.064.01c-2.151.38-3.856.68-5.21 1.035-1.385.363-2.532.812-3.52 1.556a9.5 9.5 0 00-3.368 4.81c-.361 1.183-.391 2.414-.258 3.84.13 1.393.43 3.098.81 5.25l.011.064 3.89 22.06.011.065c.38 2.151.68 3.856 1.035 5.21.362 1.385.811 2.532 1.556 3.52a9.5 9.5 0 004.81 3.367c1.183.362 2.414.392 3.84.259 1.393-.13 3.098-.43 5.249-.81l.065-.011 18.454-3.254a1.5 1.5 0 10-.522-2.955l-18.453 3.254c-2.23.394-3.815.672-5.073.789-1.24.116-2.03.06-2.683-.14a6.5 6.5 0 01-3.291-2.305c-.411-.546-.735-1.269-1.05-2.474-.32-1.221-.6-2.805-.994-5.036l-3.89-22.06c-.393-2.23-.67-3.815-.788-5.072-.116-1.24-.06-2.03.14-2.684a6.5 6.5 0 012.305-3.29c.545-.412 1.269-.735 2.473-1.05 1.222-.32 2.806-.6 5.037-.994l.789-.14a1.5 1.5 0 10-.521-2.954l-.79.14z" fill="url(#paint0_linear)"/><path fill-rule="evenodd" clip-rule="evenodd" d="M38.307.984l-.065-.011c-2.15-.38-3.855-.68-5.25-.81C31.568.03 30.337.06 29.154.422a9.5 9.5 0 00-4.81 3.367c-.744.988-1.193 2.135-1.556 3.52-.354 1.354-.655 3.059-1.034 5.21l-.012.065-3.89 22.06-.01.065c-.38 2.15-.68 3.855-.81 5.25-.134 1.425-.104 2.656.258 3.839a9.5 9.5 0 003.368 4.81c.988.744 2.134 1.193 3.52 1.556 1.354.354 3.058.655 5.21 1.034l.064.012 10.242 1.806.065.011c2.151.38 3.856.68 5.25.81 1.425.133 2.656.103 3.84-.259a9.5 9.5 0 004.81-3.367c.744-.988 1.193-2.135 1.555-3.52.355-1.354.655-3.059 1.035-5.21l.011-.065 3.89-22.06.011-.065c.38-2.15.68-3.856.81-5.25.133-1.425.103-2.656-.258-3.839a9.5 9.5 0 00-3.368-4.81c-.988-.744-2.135-1.193-3.52-1.556-1.354-.354-3.058-.655-5.21-1.034l-.065-.012L38.307.984zM30.03 3.291c.654-.2 1.444-.257 2.684-.14 1.258.116 2.842.395 5.072.788l10.242 1.806c2.231.393 3.815.674 5.037.993 1.204.316 1.928.64 2.474 1.05a6.5 6.5 0 012.304 3.291c.2.654.256 1.444.14 2.684-.117 1.258-.395 2.842-.788 5.072l-3.89 22.06c-.394 2.23-.674 3.814-.994 5.036-.315 1.205-.639 1.928-1.05 2.474a6.5 6.5 0 01-3.29 2.304c-.654.2-1.444.257-2.684.14-1.258-.116-2.842-.394-5.073-.788l-10.242-1.806c-2.23-.393-3.814-.674-5.036-.993-1.205-.316-1.928-.64-2.474-1.05a6.5 6.5 0 01-2.304-3.291c-.2-.654-.256-1.444-.14-2.684.117-1.258.395-2.842.788-5.072l3.89-22.06c.393-2.23.674-3.814.993-5.036.316-1.205.64-1.928 1.05-2.474A6.5 6.5 0 0130.03 3.29zm-16.58 11.5l-.064.01c-2.151.38-3.856.68-5.21 1.035-1.385.363-2.532.812-3.52 1.556a9.5 9.5 0 00-3.368 4.81c-.361 1.183-.391 2.414-.258 3.84.13 1.393.43 3.098.81 5.25l.011.064 3.89 22.06.011.065c.38 2.151.68 3.856 1.035 5.21.362 1.385.811 2.532 1.556 3.52a9.5 9.5 0 004.81 3.367c1.183.362 2.414.392 3.84.259 1.393-.13 3.098-.43 5.249-.81l.065-.011 18.454-3.254a1.5 1.5 0 10-.522-2.955l-18.453 3.254c-2.23.394-3.815.672-5.073.789-1.24.116-2.03.06-2.683-.14a6.5 6.5 0 01-3.291-2.305c-.411-.546-.735-1.269-1.05-2.474-.32-1.221-.6-2.805-.994-5.036l-3.89-22.06c-.393-2.23-.67-3.815-.788-5.072-.116-1.24-.06-2.03.14-2.684a6.5 6.5 0 012.305-3.29c.545-.412 1.269-.735 2.473-1.05 1.222-.32 2.806-.6 5.037-.994l.789-.14a1.5 1.5 0 10-.521-2.954l-.79.14z" fill="url(#paint1_linear)"/><defs><linearGradient id="paint0_linear" x1=".957" y1=".091" x2="44.367" y2="55.508" gradientUnits="userSpaceOnUse"><stop stop-color="#17E6D4"/><stop offset="1" stop-color="#4560E6"/></linearGradient><linearGradient id="paint1_linear" x1=".957" y1=".091" x2="44.367" y2="55.508" gradientUnits="userSpaceOnUse"><stop stop-color="#00E4D7"/><stop offset="1" stop-color="#205AF1"/></linearGradient></defs></svg>