<svg width="28" height="28" fill="none" xmlns="http://www.w3.org/2000/svg"><g clip-path="url(#clip0)" filter="url(#filter0_d)"><path d="M13.328 4.61a1 1 0 011.344 0l1.762 1.598a1 1 0 00.71.259l2.377-.092a1 1 0 011.03.863l.322 2.357a1 1 0 00.378.655l1.88 1.458a1 1 0 01.233 1.323l-1.268 2.013a1 1 0 00-.131.744l.503 2.325a1 1 0 01-.672 1.164l-2.265.727a1 1 0 00-.58.486l-1.108 2.104a1 1 0 01-1.263.46l-2.202-.9a1 1 0 00-.756 0l-2.202.9a1 1 0 01-1.263-.46L9.048 20.49a1 1 0 00-.58-.486l-2.264-.727a1 1 0 01-.672-1.164l.503-2.325a1 1 0 00-.131-.744L4.636 13.03a1 1 0 01.233-1.323l1.88-1.458a1 1 0 00.378-.655l.322-2.357a1 1 0 011.03-.863l2.377.092a1 1 0 00.71-.259l1.762-1.598z" fill="#3BF"/><path d="M9.75 14.75L12 17l5.5-5.5" stroke="#fff" stroke-width="2" stroke-linecap="round" stroke-linejoin="round"/></g><defs><clipPath id="clip0"><path fill="#fff" transform="translate(4 4)" d="M0 0h20v20H0z"/></clipPath><filter id="filter0_d" x="0" y="0" width="28" height="28" filterUnits="userSpaceOnUse" color-interpolation-filters="sRGB"><feFlood flood-opacity="0" result="BackgroundImageFix"/><feColorMatrix in="SourceAlpha" values="0 0 0 0 0 0 0 0 0 0 0 0 0 0 0 0 0 0 127 0"/><feOffset/><feGaussianBlur stdDeviation="2"/><feColorMatrix values="0 0 0 0 0 0 0 0 0 0 0 0 0 0 0 0 0 0 0.25 0"/><feBlend in2="BackgroundImageFix" result="effect1_dropShadow"/><feBlend in="SourceGraphic" in2="effect1_dropShadow" result="shape"/></filter></defs></svg>