<svg width="24" height="24" viewBox="0 0 24 24" fill="none" xmlns="http://www.w3.org/2000/svg">
<path d="M11.8919 22.978L11.7799 21.9843L11.8919 22.978ZM14.978 19.8919L15.9717 20.0038L14.978 19.8919ZM1.38148 21.089L0.490471 21.543L1.38148 21.089ZM2.91103 22.6185L2.45704 23.5095L2.91103 22.6185ZM9.38148 17.089L8.49047 17.543L9.38148 17.089ZM22.6185 17.089L23.5095 17.543L22.6185 17.089ZM21.089 18.6185L21.543 19.5095L21.089 18.6185ZM21.089 1.38148L21.543 0.490471L21.089 1.38148ZM22.6185 2.91103L23.5095 2.45704L22.6185 2.91103ZM2.91103 5.38148L2.45704 4.49047L2.91103 5.38148ZM12.1081 1.02201L11.9962 0.028295L12.1081 1.02201ZM9.02201 4.10812L8.0283 3.99616L9.02201 4.10812ZM13 2H17.4V0H13V2ZM22 6.6V13.4H24V6.6H22ZM10 13.4V5H8V13.4H10ZM9 4H6.6V6H9V4ZM0 10.6V17.4H2V10.6H0ZM6.6 24H11V22H6.6V24ZM17.4 18H15V20H17.4V18ZM15 18H14.6V20H15V18ZM11 24C11.4372 24 11.7386 24.0016 12.0038 23.9717L11.7799 21.9843C11.6545 21.9984 11.4916 22 11 22V24ZM14 19C14 19.4916 13.9984 19.6545 13.9843 19.7799L15.9717 20.0038C16.0016 19.7386 16 19.4372 16 19H14ZM12.0038 23.9717C14.0901 23.7366 15.7366 22.0901 15.9717 20.0038L13.9843 19.7799C13.8537 20.939 12.939 21.8537 11.7799 21.9843L12.0038 23.9717ZM0 17.4C0 18.3636 -0.000777721 19.1464 0.0510057 19.7802C0.103743 20.4257 0.215931 21.0041 0.490471 21.543L2.27248 20.635C2.16555 20.4251 2.087 20.1392 2.04436 19.6174C2.00078 19.0839 2 18.3966 2 17.4H0ZM6.6 22C5.60341 22 4.9161 21.9992 4.38264 21.9556C3.86085 21.913 3.5749 21.8345 3.36502 21.7275L2.45704 23.5095C2.99586 23.7841 3.5743 23.8963 4.21977 23.949C4.85357 24.0008 5.63641 24 6.6 24V22ZM0.490471 21.543C0.921901 22.3897 1.61031 23.0781 2.45704 23.5095L3.36502 21.7275C2.89462 21.4878 2.51217 21.1054 2.27248 20.635L0.490471 21.543ZM8 13.4C8 14.3636 7.99922 15.1464 8.05101 15.7802C8.10374 16.4257 8.21593 17.0041 8.49047 17.543L10.2725 16.635C10.1655 16.4251 10.087 16.1392 10.0444 15.6174C10.0008 15.0839 10 14.3966 10 13.4H8ZM14.6 18C13.6034 18 12.9161 17.9992 12.3826 17.9556C11.8608 17.913 11.5749 17.8345 11.365 17.7275L10.457 19.5095C10.9959 19.7841 11.5743 19.8963 12.2198 19.949C12.8536 20.0008 13.6364 20 14.6 20V18ZM8.49047 17.543C8.9219 18.3897 9.61031 19.0781 10.457 19.5095L11.365 17.7275C10.8946 17.4878 10.5122 17.1054 10.2725 16.635L8.49047 17.543ZM22 13.4C22 14.3966 21.9992 15.0839 21.9556 15.6174C21.913 16.1392 21.8345 16.4251 21.7275 16.635L23.5095 17.543C23.7841 17.0041 23.8963 16.4257 23.949 15.7802C24.0008 15.1464 24 14.3636 24 13.4H22ZM17.4 20C18.3636 20 19.1464 20.0008 19.7802 19.949C20.4257 19.8963 21.0041 19.7841 21.543 19.5095L20.635 17.7275C20.4251 17.8345 20.1392 17.913 19.6174 17.9556C19.0839 17.9992 18.3966 18 17.4 18V20ZM21.7275 16.635C21.4878 17.1054 21.1054 17.4878 20.635 17.7275L21.543 19.5095C22.3897 19.0781 23.0781 18.3897 23.5095 17.543L21.7275 16.635ZM17.4 2C18.3966 2 19.0839 2.00078 19.6174 2.04436C20.1392 2.087 20.4251 2.16555 20.635 2.27248L21.543 0.490471C21.0041 0.215931 20.4257 0.103743 19.7802 0.0510057C19.1464 -0.000777721 18.3636 0 17.4 0V2ZM24 6.6C24 5.63641 24.0008 4.85357 23.949 4.21977C23.8963 3.5743 23.7841 2.99586 23.5095 2.45704L21.7275 3.36502C21.8345 3.5749 21.913 3.86085 21.9556 4.38264C21.9992 4.9161 22 5.60341 22 6.6H24ZM20.635 2.27248C21.1054 2.51217 21.4878 2.89462 21.7275 3.36502L23.5095 2.45704C23.0781 1.61031 22.3897 0.921901 21.543 0.490471L20.635 2.27248ZM6.6 4C5.63641 4 4.85357 3.99922 4.21977 4.05101C3.5743 4.10374 2.99586 4.21593 2.45704 4.49047L3.36502 6.27248C3.5749 6.16555 3.86085 6.087 4.38264 6.04436C4.9161 6.00078 5.60341 6 6.6 6V4ZM2 10.6C2 9.60341 2.00078 8.9161 2.04436 8.38264C2.087 7.86085 2.16555 7.5749 2.27248 7.36502L0.490471 6.45704C0.215931 6.99586 0.103743 7.5743 0.0510057 8.21977C-0.000777721 8.85357 0 9.63641 0 10.6H2ZM2.45704 4.49047C1.61031 4.9219 0.921901 5.61031 0.490471 6.45704L2.27248 7.36502C2.51217 6.89462 2.89462 6.51217 3.36502 6.27248L2.45704 4.49047ZM13 0C12.5628 0 12.2614 -0.00158501 11.9962 0.028295L12.2201 2.01572C12.3455 2.00159 12.5084 2 13 2V0ZM10 5C10 4.50842 10.0016 4.34554 10.0157 4.22009L8.0283 3.99616C7.99841 4.26135 8 4.56284 8 5H10ZM11.9962 0.028295C9.90987 0.263363 8.26336 1.90987 8.0283 3.99616L10.0157 4.22009C10.1463 3.06104 11.061 2.14631 12.2201 2.01572L11.9962 0.028295Z" fill="#BCBECC"/>
</svg>
