<svg width="24" height="22" viewBox="0 0 24 22" fill="none" xmlns="http://www.w3.org/2000/svg">
<path d="M1 21H0C0 21.3688 0.202985 21.7077 0.528142 21.8817C0.8533 22.0557 1.24784 22.0366 1.5547 21.8321L1 21ZM7.44551 17.0543L7.621 18.0388L7.44551 17.0543ZM5.58922 17.9405L6.14392 18.7726L5.58922 17.9405ZM22.6185 15.089L23.5095 15.543L22.6185 15.089ZM21.089 16.6185L20.635 15.7275L21.089 16.6185ZM21.089 1.38148L21.543 0.490471L21.089 1.38148ZM22.6185 2.91103L23.5095 2.45704L22.6185 2.91103ZM2 21V6.6H0V21H2ZM6.6 2H17.4V0H6.6V2ZM22 6.6V11.4H24V6.6H22ZM17.4 16H8.69554V18H17.4V16ZM5.03452 17.1085L0.4453 20.1679L1.5547 21.8321L6.14392 18.7726L5.03452 17.1085ZM8.69554 16C8.09974 16 7.6818 15.9964 7.27002 16.0698L7.621 18.0388C7.81862 18.0036 8.0309 18 8.69554 18V16ZM6.14392 18.7726C6.69694 18.4039 6.87555 18.2891 7.05952 18.2088L6.25936 16.3758C5.87603 16.5432 5.53026 16.778 5.03452 17.1085L6.14392 18.7726ZM7.27002 16.0698C6.92229 16.1318 6.58307 16.2345 6.25936 16.3758L7.05952 18.2088C7.23936 18.1303 7.42781 18.0732 7.621 18.0388L7.27002 16.0698ZM22 11.4C22 12.3966 21.9992 13.0839 21.9556 13.6174C21.913 14.1392 21.8345 14.4251 21.7275 14.635L23.5095 15.543C23.7841 15.0041 23.8963 14.4257 23.949 13.7802C24.0008 13.1464 24 12.3636 24 11.4H22ZM17.4 18C18.3636 18 19.1464 18.0008 19.7802 17.949C20.4257 17.8963 21.0041 17.7841 21.543 17.5095L20.635 15.7275C20.4251 15.8345 20.1392 15.913 19.6174 15.9556C19.0839 15.9992 18.3966 16 17.4 16V18ZM21.7275 14.635C21.4878 15.1054 21.1054 15.4878 20.635 15.7275L21.543 17.5095C22.3897 17.0781 23.0781 16.3897 23.5095 15.543L21.7275 14.635ZM17.4 2C18.3966 2 19.0839 2.00078 19.6174 2.04436C20.1392 2.087 20.4251 2.16555 20.635 2.27248L21.543 0.490471C21.0041 0.215931 20.4257 0.103743 19.7802 0.0510057C19.1464 -0.000777721 18.3636 0 17.4 0V2ZM24 6.6C24 5.63641 24.0008 4.85357 23.949 4.21977C23.8963 3.5743 23.7841 2.99586 23.5095 2.45704L21.7275 3.36502C21.8345 3.5749 21.913 3.86085 21.9556 4.38264C21.9992 4.9161 22 5.60341 22 6.6H24ZM20.635 2.27248C21.1054 2.51217 21.4878 2.89462 21.7275 3.36502L23.5095 2.45704C23.0781 1.61031 22.3897 0.921901 21.543 0.490471L20.635 2.27248ZM2 6.6C2 5.60341 2.00078 4.9161 2.04436 4.38264C2.087 3.86085 2.16555 3.5749 2.27248 3.36502L0.490471 2.45704C0.215931 2.99586 0.103743 3.5743 0.0510057 4.21978C-0.000777721 4.85357 0 5.63641 0 6.6H2ZM6.6 0C5.63641 0 4.85357 -0.000777721 4.21977 0.0510057C3.5743 0.103743 2.99586 0.215931 2.45704 0.490471L3.36502 2.27248C3.5749 2.16555 3.86085 2.087 4.38264 2.04436C4.9161 2.00078 5.60341 2 6.6 2V0ZM2.27248 3.36502C2.51217 2.89462 2.89462 2.51217 3.36502 2.27248L2.45704 0.490471C1.61031 0.921901 0.921901 1.61031 0.490471 2.45704L2.27248 3.36502Z" fill="#BCBECC"/>
</svg>
