<svg width="11" height="15" viewBox="0 0 11 15" fill="none" xmlns="http://www.w3.org/2000/svg">
<path d="M5.3039 0.0036396C2.56469 0.103327 0.289075 2.31991 0.0261783 5.14927C-0.0275318 5.71515 0.00356356 6.26343 0.0996764 6.78825C0.0996764 6.78825 0.108157 6.84983 0.136425 6.9671C0.221231 7.35999 0.348439 7.74115 0.506742 8.09885C1.05798 9.45343 2.33289 11.7199 5.19366 14.1857C5.36892 14.3381 5.62616 14.3381 5.80426 14.1857C8.66502 11.7228 9.93993 9.45636 10.494 8.09592C10.6551 7.73822 10.7795 7.35999 10.8643 6.96417C10.8898 6.84983 10.9011 6.78532 10.9011 6.78532C10.9661 6.43348 11 6.07285 11 5.70342C11 2.4841 8.4304 -0.110708 5.3039 0.0036396ZM5.49896 8.54158C4.02334 8.54158 2.82758 7.30135 2.82758 5.77085C2.82758 4.24036 4.02334 3.00013 5.49896 3.00013C6.97457 3.00013 8.17033 4.24036 8.17033 5.77085C8.17033 7.30135 6.97457 8.54158 5.49896 8.54158Z" fill="white"/>
</svg>
