<svg width="24" height="22" viewBox="0 0 24 22" fill="none" xmlns="http://www.w3.org/2000/svg">
<path d="M23.9834 6.98535C23.9768 6.90188 23.9694 6.83789 23.9627 6.79396C23.627 3.00168 20.8376 0 17.2174 0C15.1201 0 13.2035 0.989888 11.9485 2.59465C10.7229 0.979092 8.87926 0 6.79308 0C3.18525 0 0.402228 2.98135 0.0439009 6.81551C0.0370127 6.86019 0.0300776 6.91459 0.0237517 6.97857C-0.0374924 7.59802 0.0134428 8.41882 0.250125 9.41889C0.753011 11.5437 1.92897 13.479 3.58758 14.9786L11.3112 21.7517C11.6874 22.0817 12.2503 22.0829 12.6279 21.7546L20.4082 14.9926C22.242 13.0891 23.3318 11.3768 23.764 9.40361C23.9808 8.41269 24.0313 7.59728 23.9834 6.98535ZM21.8108 8.9783C21.4709 10.5302 20.5666 11.9509 19.0296 13.5512L11.9745 19.6782L4.91901 13.4911C3.56569 12.2674 2.60392 10.6845 2.19593 8.96078C2.01069 8.17807 1.97349 7.57807 2.01341 7.17426C2.01693 7.13855 2.03183 7.03068 2.03183 7.03068C2.28899 4.14342 4.28652 1.99412 6.79308 1.99412C8.65912 1.99412 10.2467 3.12923 11.0183 4.95229C11.3622 5.76467 12.5164 5.76467 12.8602 4.95229C13.6163 3.16577 15.3165 1.99412 17.2174 1.99412C19.7241 1.99412 21.7215 4.14356 21.9787 7.03171C21.9855 7.08976 21.9874 7.10584 21.9901 7.14075C22.0232 7.56255 21.9848 8.18275 21.8108 8.9783Z" fill="white"/>
</svg>
