<svg width="100" height="28" viewBox="0 0 100 28" fill="none" xmlns="http://www.w3.org/2000/svg">
<path d="M35.7017 21.137H46.033V17.791H39.188V5.33844H35.7017V21.137Z" fill="url(#paint0_linear)"/>
<path d="M35.7017 21.137H46.033V17.791H39.188V5.33844H35.7017V21.137Z" fill="url(#paint1_linear)"/>
<path d="M35.7017 21.137H46.033V17.791H39.188V5.33844H35.7017V21.137Z" fill="url(#paint2_linear)"/>
<path d="M35.7017 21.137H46.033V17.791H39.188V5.33844H35.7017V21.137Z" fill="black"/>
<path d="M35.7017 21.137H46.033V17.791H39.188V5.33844H35.7017V21.137Z" fill="white"/>
<path d="M58.7939 10.1246L63.003 21.137H66.3617L70.5707 10.1246H67.0844L64.6823 17.3039L62.2802 10.1246H58.7939Z" fill="url(#paint3_linear)"/>
<path d="M58.7939 10.1246L63.003 21.137H66.3617L70.5707 10.1246H67.0844L64.6823 17.3039L62.2802 10.1246H58.7939Z" fill="url(#paint4_linear)"/>
<path d="M58.7939 10.1246L63.003 21.137H66.3617L70.5707 10.1246H67.0844L64.6823 17.3039L62.2802 10.1246H58.7939Z" fill="url(#paint5_linear)"/>
<path d="M58.7939 10.1246L63.003 21.137H66.3617L70.5707 10.1246H67.0844L64.6823 17.3039L62.2802 10.1246H58.7939Z" fill="black"/>
<path d="M58.7939 10.1246L63.003 21.137H66.3617L70.5707 10.1246H67.0844L64.6823 17.3039L62.2802 10.1246H58.7939Z" fill="white"/>
<path d="M75.135 10.1246H71.8825V21.137H75.135V10.1246ZM71.755 7.13855C71.755 8.09155 72.6053 8.93866 73.5619 8.93866C74.5185 8.93866 75.3688 8.09155 75.3688 7.13855C75.3688 6.18555 74.5185 5.33844 73.5619 5.33844C72.6053 5.33844 71.755 6.18555 71.755 7.13855Z" fill="url(#paint6_linear)"/>
<path d="M75.135 10.1246H71.8825V21.137H75.135V10.1246ZM71.755 7.13855C71.755 8.09155 72.6053 8.93866 73.5619 8.93866C74.5185 8.93866 75.3688 8.09155 75.3688 7.13855C75.3688 6.18555 74.5185 5.33844 73.5619 5.33844C72.6053 5.33844 71.755 6.18555 71.755 7.13855Z" fill="url(#paint7_linear)"/>
<path d="M75.135 10.1246H71.8825V21.137H75.135V10.1246ZM71.755 7.13855C71.755 8.09155 72.6053 8.93866 73.5619 8.93866C74.5185 8.93866 75.3688 8.09155 75.3688 7.13855C75.3688 6.18555 74.5185 5.33844 73.5619 5.33844C72.6053 5.33844 71.755 6.18555 71.755 7.13855Z" fill="url(#paint8_linear)"/>
<path d="M75.135 10.1246H71.8825V21.137H75.135V10.1246ZM71.755 7.13855C71.755 8.09155 72.6053 8.93866 73.5619 8.93866C74.5185 8.93866 75.3688 8.09155 75.3688 7.13855C75.3688 6.18555 74.5185 5.33844 73.5619 5.33844C72.6053 5.33844 71.755 6.18555 71.755 7.13855Z" fill="black"/>
<path d="M75.135 10.1246H71.8825V21.137H75.135V10.1246ZM71.755 7.13855C71.755 8.09155 72.6053 8.93866 73.5619 8.93866C74.5185 8.93866 75.3688 8.09155 75.3688 7.13855C75.3688 6.18555 74.5185 5.33844 73.5619 5.33844C72.6053 5.33844 71.755 6.18555 71.755 7.13855Z" fill="white"/>
<path d="M83.898 10.0187C81.9635 10.0187 80.6455 11.2047 80.6455 11.2047L80.1566 10.1246H77.7545V21.137H81.0069V15.2708C81.0069 13.8307 81.8572 13.0048 83.0477 13.0048C84.2594 13.0048 85.0884 13.8307 85.0884 15.2708V21.137H88.3408V14.6778C88.3408 11.7977 86.5339 10.0187 83.898 10.0187Z" fill="url(#paint9_linear)"/>
<path d="M83.898 10.0187C81.9635 10.0187 80.6455 11.2047 80.6455 11.2047L80.1566 10.1246H77.7545V21.137H81.0069V15.2708C81.0069 13.8307 81.8572 13.0048 83.0477 13.0048C84.2594 13.0048 85.0884 13.8307 85.0884 15.2708V21.137H88.3408V14.6778C88.3408 11.7977 86.5339 10.0187 83.898 10.0187Z" fill="url(#paint10_linear)"/>
<path d="M83.898 10.0187C81.9635 10.0187 80.6455 11.2047 80.6455 11.2047L80.1566 10.1246H77.7545V21.137H81.0069V15.2708C81.0069 13.8307 81.8572 13.0048 83.0477 13.0048C84.2594 13.0048 85.0884 13.8307 85.0884 15.2708V21.137H88.3408V14.6778C88.3408 11.7977 86.5339 10.0187 83.898 10.0187Z" fill="url(#paint11_linear)"/>
<path d="M83.898 10.0187C81.9635 10.0187 80.6455 11.2047 80.6455 11.2047L80.1566 10.1246H77.7545V21.137H81.0069V15.2708C81.0069 13.8307 81.8572 13.0048 83.0477 13.0048C84.2594 13.0048 85.0884 13.8307 85.0884 15.2708V21.137H88.3408V14.6778C88.3408 11.7977 86.5339 10.0187 83.898 10.0187Z" fill="black"/>
<path d="M83.898 10.0187C81.9635 10.0187 80.6455 11.2047 80.6455 11.2047L80.1566 10.1246H77.7545V21.137H81.0069V15.2708C81.0069 13.8307 81.8572 13.0048 83.0477 13.0048C84.2594 13.0048 85.0884 13.8307 85.0884 15.2708V21.137H88.3408V14.6778C88.3408 11.7977 86.5339 10.0187 83.898 10.0187Z" fill="white"/>
<path d="M95.4296 9.89165C92.5598 9.89165 90.9868 11.4376 90.6254 13.5978L93.8778 13.8307C93.8778 13.8307 94.1116 12.7718 95.3233 12.7718C96.1524 12.7718 96.7689 13.3648 96.7689 14.4449C91.7095 14.4449 90.1577 15.9908 90.1577 18.151C90.1577 19.9511 91.4757 21.2641 93.8778 21.2641C95.791 21.2641 97.1302 20.057 97.1302 20.057L97.5979 21.137H100V14.4449C100 11.7977 98.0868 9.89165 95.4296 9.89165ZM94.7281 18.871C93.8778 18.871 93.3889 18.3839 93.3889 17.791C93.3889 16.9438 94.0054 16.3509 96.7689 16.3509V16.838C96.7689 18.0239 95.9186 18.871 94.7281 18.871Z" fill="url(#paint12_linear)"/>
<path d="M95.4296 9.89165C92.5598 9.89165 90.9868 11.4376 90.6254 13.5978L93.8778 13.8307C93.8778 13.8307 94.1116 12.7718 95.3233 12.7718C96.1524 12.7718 96.7689 13.3648 96.7689 14.4449C91.7095 14.4449 90.1577 15.9908 90.1577 18.151C90.1577 19.9511 91.4757 21.2641 93.8778 21.2641C95.791 21.2641 97.1302 20.057 97.1302 20.057L97.5979 21.137H100V14.4449C100 11.7977 98.0868 9.89165 95.4296 9.89165ZM94.7281 18.871C93.8778 18.871 93.3889 18.3839 93.3889 17.791C93.3889 16.9438 94.0054 16.3509 96.7689 16.3509V16.838C96.7689 18.0239 95.9186 18.871 94.7281 18.871Z" fill="url(#paint13_linear)"/>
<path d="M95.4296 9.89165C92.5598 9.89165 90.9868 11.4376 90.6254 13.5978L93.8778 13.8307C93.8778 13.8307 94.1116 12.7718 95.3233 12.7718C96.1524 12.7718 96.7689 13.3648 96.7689 14.4449C91.7095 14.4449 90.1577 15.9908 90.1577 18.151C90.1577 19.9511 91.4757 21.2641 93.8778 21.2641C95.791 21.2641 97.1302 20.057 97.1302 20.057L97.5979 21.137H100V14.4449C100 11.7977 98.0868 9.89165 95.4296 9.89165ZM94.7281 18.871C93.8778 18.871 93.3889 18.3839 93.3889 17.791C93.3889 16.9438 94.0054 16.3509 96.7689 16.3509V16.838C96.7689 18.0239 95.9186 18.871 94.7281 18.871Z" fill="url(#paint14_linear)"/>
<path d="M95.4296 9.89165C92.5598 9.89165 90.9868 11.4376 90.6254 13.5978L93.8778 13.8307C93.8778 13.8307 94.1116 12.7718 95.3233 12.7718C96.1524 12.7718 96.7689 13.3648 96.7689 14.4449C91.7095 14.4449 90.1577 15.9908 90.1577 18.151C90.1577 19.9511 91.4757 21.2641 93.8778 21.2641C95.791 21.2641 97.1302 20.057 97.1302 20.057L97.5979 21.137H100V14.4449C100 11.7977 98.0868 9.89165 95.4296 9.89165ZM94.7281 18.871C93.8778 18.871 93.3889 18.3839 93.3889 17.791C93.3889 16.9438 94.0054 16.3509 96.7689 16.3509V16.838C96.7689 18.0239 95.9186 18.871 94.7281 18.871Z" fill="black"/>
<path d="M95.4296 9.89165C92.5598 9.89165 90.9868 11.4376 90.6254 13.5978L93.8778 13.8307C93.8778 13.8307 94.1116 12.7718 95.3233 12.7718C96.1524 12.7718 96.7689 13.3648 96.7689 14.4449C91.7095 14.4449 90.1577 15.9908 90.1577 18.151C90.1577 19.9511 91.4757 21.2641 93.8778 21.2641C95.791 21.2641 97.1302 20.057 97.1302 20.057L97.5979 21.137H100V14.4449C100 11.7977 98.0868 9.89165 95.4296 9.89165ZM94.7281 18.871C93.8778 18.871 93.3889 18.3839 93.3889 17.791C93.3889 16.9438 94.0054 16.3509 96.7689 16.3509V16.838C96.7689 18.0239 95.9186 18.871 94.7281 18.871Z" fill="white"/>
<path fill-rule="evenodd" clip-rule="evenodd" d="M58.2881 15.6626C58.2881 18.7328 55.7897 21.2217 52.7079 21.2217C49.6261 21.2217 47.1278 18.7328 47.1278 15.6626C47.1278 12.5924 49.6261 10.1034 52.7079 10.1034C55.7897 10.1034 58.2881 12.5924 58.2881 15.6626ZM53.4443 12.9808C54.368 13.232 55.1007 13.9441 55.378 14.8537C55.456 15.1097 55.498 15.3812 55.498 15.6626C55.498 17.1977 54.2488 18.4422 52.7079 18.4422C51.167 18.4422 49.9178 17.1977 49.9178 15.6626C49.9178 14.1275 51.167 12.883 52.7079 12.883C52.9628 12.883 53.2097 12.9171 53.4443 12.9808Z" fill="url(#paint15_linear)"/>
<path fill-rule="evenodd" clip-rule="evenodd" d="M58.2881 15.6626C58.2881 18.7328 55.7897 21.2217 52.7079 21.2217C49.6261 21.2217 47.1278 18.7328 47.1278 15.6626C47.1278 12.5924 49.6261 10.1034 52.7079 10.1034C55.7897 10.1034 58.2881 12.5924 58.2881 15.6626ZM53.4443 12.9808C54.368 13.232 55.1007 13.9441 55.378 14.8537C55.456 15.1097 55.498 15.3812 55.498 15.6626C55.498 17.1977 54.2488 18.4422 52.7079 18.4422C51.167 18.4422 49.9178 17.1977 49.9178 15.6626C49.9178 14.1275 51.167 12.883 52.7079 12.883C52.9628 12.883 53.2097 12.9171 53.4443 12.9808Z" fill="url(#paint16_linear)"/>
<path fill-rule="evenodd" clip-rule="evenodd" d="M58.2881 15.6626C58.2881 18.7328 55.7897 21.2217 52.7079 21.2217C49.6261 21.2217 47.1278 18.7328 47.1278 15.6626C47.1278 12.5924 49.6261 10.1034 52.7079 10.1034C55.7897 10.1034 58.2881 12.5924 58.2881 15.6626ZM53.4443 12.9808C54.368 13.232 55.1007 13.9441 55.378 14.8537C55.456 15.1097 55.498 15.3812 55.498 15.6626C55.498 17.1977 54.2488 18.4422 52.7079 18.4422C51.167 18.4422 49.9178 17.1977 49.9178 15.6626C49.9178 14.1275 51.167 12.883 52.7079 12.883C52.9628 12.883 53.2097 12.9171 53.4443 12.9808Z" fill="url(#paint17_linear)"/>
<path fill-rule="evenodd" clip-rule="evenodd" d="M58.2881 15.6626C58.2881 18.7328 55.7897 21.2217 52.7079 21.2217C49.6261 21.2217 47.1278 18.7328 47.1278 15.6626C47.1278 12.5924 49.6261 10.1034 52.7079 10.1034C55.7897 10.1034 58.2881 12.5924 58.2881 15.6626ZM53.4443 12.9808C54.368 13.232 55.1007 13.9441 55.378 14.8537C55.456 15.1097 55.498 15.3812 55.498 15.6626C55.498 17.1977 54.2488 18.4422 52.7079 18.4422C51.167 18.4422 49.9178 17.1977 49.9178 15.6626C49.9178 14.1275 51.167 12.883 52.7079 12.883C52.9628 12.883 53.2097 12.9171 53.4443 12.9808Z" fill="black"/>
<path fill-rule="evenodd" clip-rule="evenodd" d="M58.2881 15.6626C58.2881 18.7328 55.7897 21.2217 52.7079 21.2217C49.6261 21.2217 47.1278 18.7328 47.1278 15.6626C47.1278 12.5924 49.6261 10.1034 52.7079 10.1034C55.7897 10.1034 58.2881 12.5924 58.2881 15.6626ZM53.4443 12.9808C54.368 13.232 55.1007 13.9441 55.378 14.8537C55.456 15.1097 55.498 15.3812 55.498 15.6626C55.498 17.1977 54.2488 18.4422 52.7079 18.4422C51.167 18.4422 49.9178 17.1977 49.9178 15.6626C49.9178 14.1275 51.167 12.883 52.7079 12.883C52.9628 12.883 53.2097 12.9171 53.4443 12.9808Z" fill="white"/>
<path fill-rule="evenodd" clip-rule="evenodd" d="M26.643 14.1854C26.643 21.515 20.6788 27.4568 13.3215 27.4568C5.96424 27.4568 0 21.515 0 14.1854C0 6.8558 5.96424 0.914001 13.3215 0.914001C20.6788 0.914001 26.643 6.8558 26.643 14.1854ZM15.0795 7.78325C17.2846 8.38282 19.0339 10.0829 19.6958 12.2543C19.8821 12.8654 19.9823 13.5137 19.9823 14.1854C19.9823 17.8502 17.0001 20.8211 13.3215 20.8211C9.64288 20.8211 6.66076 17.8502 6.66076 14.1854C6.66076 10.5206 9.64288 7.54969 13.3215 7.54969C13.93 7.54969 14.5194 7.63098 15.0795 7.78325Z" fill="url(#paint18_linear)"/>
<path d="M13.305 27.4576C13.652 27.4567 13.9973 27.4439 14.3398 27.4194C16.2533 27.2753 18.0539 26.7285 19.6564 25.8639C21.9099 24.3528 22.4562 21.8166 22.4562 20.6353C22.4562 18.4985 21.0979 16.5439 19.7872 16.0218C19.2683 15.7026 18.6576 15.5185 18.0035 15.5185C16.1195 15.5185 14.5923 17.0458 14.5923 18.9297C14.5923 19.5322 14.7485 20.0983 15.0228 20.5895C9.13472 22.149 3.23519 16.7457 3.99642 10.3944C4.37997 7.19428 6.56522 1.6739 13.2645 0.914978C7.67089 0.938326 2.89095 4.39611 0.939429 9.28113C0.333269 10.7985 0 12.4536 0 14.1862C0 21.5103 5.95528 27.4487 13.305 27.4576Z" fill="url(#paint19_linear)"/>
<defs>
<linearGradient id="paint0_linear" x1="52.7079" y1="10.1034" x2="52.7079" y2="21.2217" gradientUnits="userSpaceOnUse">
<stop stop-color="#FF1C1C"/>
<stop offset="1" stop-color="#9104FF"/>
</linearGradient>
<linearGradient id="paint1_linear" x1="52.7079" y1="10.1034" x2="52.7079" y2="21.2217" gradientUnits="userSpaceOnUse">
<stop stop-color="#FF371C"/>
<stop offset="1" stop-color="#7304FF"/>
</linearGradient>
<linearGradient id="paint2_linear" x1="56.9779" y1="10.8044" x2="48.1354" y2="20.7231" gradientUnits="userSpaceOnUse">
<stop stop-color="#C751FF"/>
<stop offset="1" stop-color="#3586FF"/>
</linearGradient>
<linearGradient id="paint3_linear" x1="52.7079" y1="10.1034" x2="52.7079" y2="21.2217" gradientUnits="userSpaceOnUse">
<stop stop-color="#FF1C1C"/>
<stop offset="1" stop-color="#9104FF"/>
</linearGradient>
<linearGradient id="paint4_linear" x1="52.7079" y1="10.1034" x2="52.7079" y2="21.2217" gradientUnits="userSpaceOnUse">
<stop stop-color="#FF371C"/>
<stop offset="1" stop-color="#7304FF"/>
</linearGradient>
<linearGradient id="paint5_linear" x1="56.9779" y1="10.8044" x2="48.1354" y2="20.7231" gradientUnits="userSpaceOnUse">
<stop stop-color="#C751FF"/>
<stop offset="1" stop-color="#3586FF"/>
</linearGradient>
<linearGradient id="paint6_linear" x1="52.7079" y1="10.1034" x2="52.7079" y2="21.2217" gradientUnits="userSpaceOnUse">
<stop stop-color="#FF1C1C"/>
<stop offset="1" stop-color="#9104FF"/>
</linearGradient>
<linearGradient id="paint7_linear" x1="52.7079" y1="10.1034" x2="52.7079" y2="21.2217" gradientUnits="userSpaceOnUse">
<stop stop-color="#FF371C"/>
<stop offset="1" stop-color="#7304FF"/>
</linearGradient>
<linearGradient id="paint8_linear" x1="56.9779" y1="10.8044" x2="48.1354" y2="20.7231" gradientUnits="userSpaceOnUse">
<stop stop-color="#C751FF"/>
<stop offset="1" stop-color="#3586FF"/>
</linearGradient>
<linearGradient id="paint9_linear" x1="52.7079" y1="10.1034" x2="52.7079" y2="21.2217" gradientUnits="userSpaceOnUse">
<stop stop-color="#FF1C1C"/>
<stop offset="1" stop-color="#9104FF"/>
</linearGradient>
<linearGradient id="paint10_linear" x1="52.7079" y1="10.1034" x2="52.7079" y2="21.2217" gradientUnits="userSpaceOnUse">
<stop stop-color="#FF371C"/>
<stop offset="1" stop-color="#7304FF"/>
</linearGradient>
<linearGradient id="paint11_linear" x1="56.9779" y1="10.8044" x2="48.1354" y2="20.7231" gradientUnits="userSpaceOnUse">
<stop stop-color="#C751FF"/>
<stop offset="1" stop-color="#3586FF"/>
</linearGradient>
<linearGradient id="paint12_linear" x1="52.7079" y1="10.1034" x2="52.7079" y2="21.2217" gradientUnits="userSpaceOnUse">
<stop stop-color="#FF1C1C"/>
<stop offset="1" stop-color="#9104FF"/>
</linearGradient>
<linearGradient id="paint13_linear" x1="52.7079" y1="10.1034" x2="52.7079" y2="21.2217" gradientUnits="userSpaceOnUse">
<stop stop-color="#FF371C"/>
<stop offset="1" stop-color="#7304FF"/>
</linearGradient>
<linearGradient id="paint14_linear" x1="56.9779" y1="10.8044" x2="48.1354" y2="20.7231" gradientUnits="userSpaceOnUse">
<stop stop-color="#C751FF"/>
<stop offset="1" stop-color="#3586FF"/>
</linearGradient>
<linearGradient id="paint15_linear" x1="52.7079" y1="10.1034" x2="52.7079" y2="21.2217" gradientUnits="userSpaceOnUse">
<stop stop-color="#FF1C1C"/>
<stop offset="1" stop-color="#9104FF"/>
</linearGradient>
<linearGradient id="paint16_linear" x1="52.7079" y1="10.1034" x2="52.7079" y2="21.2217" gradientUnits="userSpaceOnUse">
<stop stop-color="#FF371C"/>
<stop offset="1" stop-color="#7304FF"/>
</linearGradient>
<linearGradient id="paint17_linear" x1="56.9779" y1="10.8044" x2="48.1354" y2="20.7231" gradientUnits="userSpaceOnUse">
<stop stop-color="#C751FF"/>
<stop offset="1" stop-color="#3586FF"/>
</linearGradient>
<linearGradient id="paint18_linear" x1="24.9303" y1="9.06642" x2="5.25073" y2="16.2236" gradientUnits="userSpaceOnUse">
<stop stop-color="white"/>
<stop offset="1" stop-color="#F2F2F2"/>
</linearGradient>
<linearGradient id="paint19_linear" x1="1.99823" y1="6.03376" x2="18.864" y2="25.1508" gradientUnits="userSpaceOnUse">
<stop stop-color="#F2F2F2"/>
<stop offset="1" stop-color="#C4C4C4"/>
</linearGradient>
</defs>
</svg>
