<svg width="26" height="25" viewBox="0 0 26 25" fill="none" xmlns="http://www.w3.org/2000/svg">
<path d="M18.0001 6.5C18.0001 8.79799 16.9224 10.6649 16.1821 11.6762C15.7872 12.2158 15.5789 12.8939 15.71 13.5496L15.8294 14.1464C15.9349 14.6743 16.313 15.1042 16.8179 15.2906C18.5121 15.916 22.3436 17.458 23.5001 19C24.0642 19.7521 24.3454 20.6456 24.4768 21.4679C24.7082 22.9161 23.4252 24.0002 21.9587 24.0002H4.04144C2.57491 24.0002 1.29198 22.9161 1.52336 21.4679C1.65474 20.6457 1.936 19.7521 2.50012 19C3.65669 17.458 7.48808 15.916 9.18223 15.2906C9.68721 15.1042 10.0652 14.6743 10.1708 14.1464L10.2902 13.5496C10.4213 12.8939 10.213 12.2158 9.81802 11.6762C9.07778 10.6649 8.00007 8.79799 8.00007 6.5C8.00007 3 10.5005 1.00018 13.0003 1.00018C15.5001 1.00018 18.0001 3 18.0001 6.5Z" stroke="#BCBECC" stroke-width="2"/>
</svg>
