<svg width="16" height="24" viewBox="0 0 16 24" fill="none" xmlns="http://www.w3.org/2000/svg">
<path fill-rule="evenodd" clip-rule="evenodd" d="M8.00009 0C8.30002 0 8.58412 0.134627 8.77405 0.366762L12.774 5.25565C13.1238 5.6831 13.0608 6.31312 12.6333 6.66285C12.2059 7.01257 11.5759 6.94957 11.2261 6.52213L8.88898 3.66561V15.2222H7.1112V3.66561L4.77405 6.52213C4.42432 6.94957 3.7943 7.01257 3.36685 6.66285C2.93941 6.31312 2.87641 5.6831 3.22613 5.25565L7.22613 0.366762C7.41606 0.134627 7.70016 0 8.00009 0ZM13.7778 9.88889H10.6667V8.11111H13.7778C15.0051 8.11111 16 9.10603 16 10.3333V21.4444C16 22.6717 15.0051 23.6667 13.7778 23.6667H2.22222C0.994923 23.6667 0 22.6717 0 21.4444V10.3333C0 9.10603 0.994923 8.11111 2.22222 8.11111H5.33333V9.88889H2.22222C1.97676 9.88889 1.77778 10.0879 1.77778 10.3333V21.4444C1.77778 21.6899 1.97676 21.8889 2.22222 21.8889H13.7778C14.0232 21.8889 14.2222 21.6899 14.2222 21.4444V10.3333C14.2222 10.0879 14.0232 9.88889 13.7778 9.88889Z" fill="white"/>
</svg>
