<svg width="16" height="16" viewBox="0 0 16 16" fill="none" xmlns="http://www.w3.org/2000/svg">
<g clip-path="url(#clip0)">
<path d="M1.5 12V8.5L6.48288 11.1831C7.03741 11.4817 7.31467 11.631 7.60741 11.6896C7.86657 11.7415 8.13343 11.7415 8.39259 11.6896C8.68533 11.631 8.96259 11.4817 9.51712 11.1831L14.5 8.5V12L9.51712 14.6831C8.96259 14.9817 8.68533 15.131 8.39259 15.1896C8.13343 15.2415 7.86657 15.2415 7.60741 15.1896C7.31467 15.131 7.03741 14.9817 6.48288 14.6831L1.5 12Z" fill="white"/>
<path d="M6.50276 2.29266L1.50325 4.93945C0.853461 5.28346 0.528565 5.45547 0.422341 5.68492C0.329818 5.88479 0.329818 6.11521 0.422341 6.31508C0.528565 6.54453 0.85346 6.71654 1.50325 7.06054L6.50276 9.70734C7.05043 9.99729 7.32427 10.1423 7.61294 10.1992C7.86852 10.2496 8.13148 10.2496 8.38706 10.1992C8.67573 10.1423 8.94957 9.99729 9.49723 9.70735L9.49724 9.70734L14.4967 7.06055C15.1465 6.71654 15.4714 6.54453 15.5777 6.31508C15.6702 6.11521 15.6702 5.88479 15.5777 5.68492C15.4714 5.45547 15.1465 5.28346 14.4967 4.93946L9.49724 2.29266C8.94957 2.00271 8.67573 1.85774 8.38706 1.8008C8.13148 1.75038 7.86852 1.75038 7.61294 1.8008C7.32427 1.85774 7.05043 2.00271 6.50276 2.29266Z" fill="white"/>
</g>
<defs>
<clipPath id="clip0">
<rect width="16" height="16" fill="white"/>
</clipPath>
</defs>
</svg>
