<svg width="22" height="20" viewBox="0 0 22 20" fill="none" xmlns="http://www.w3.org/2000/svg">
<path fill-rule="evenodd" clip-rule="evenodd" d="M7 0H15C15.5523 0 16 0.447715 16 1C16 1.55228 15.5523 2 15 2H14V6.66667C14 7.53215 14.2807 8.37428 14.8 9.06667L20.6 16.8C21.5889 18.1185 20.6481 20 19 20H3C1.35191 20 0.411145 18.1185 1.4 16.8L7.2 9.06667C7.71929 8.37428 8 7.53215 8 6.66667V2H7C6.44771 2 6 1.55228 6 1C6 0.447715 6.44771 0 7 0ZM9.9999 2H11.9999V7.66658C11.9999 8.53211 12.2806 9.3743 12.8 10.0667L15.0001 13C15.0001 13 13.9999 13.5 12.4999 13.5C11.7499 13.5 11.3749 13.25 10.9999 13C10.6249 12.75 10.2499 12.5 9.4999 12.5C7.9999 12.5 7.00015 13 7.00015 13L9.2 10.0666C9.71923 9.37427 9.9999 8.53218 9.9999 7.66675V2Z" fill="white"/>
</svg>
