<svg width="62" height="66" viewBox="0 0 62 66" fill="none" xmlns="http://www.w3.org/2000/svg">
<path fill-rule="evenodd" clip-rule="evenodd" d="M38.3074 0.984452L38.2424 0.972991C36.0913 0.593681 34.3866 0.293088 32.9928 0.16307C31.5674 0.0301142 30.3363 0.059998 29.1531 0.421719C27.2346 1.00828 25.551 2.18715 24.3436 3.78937C23.5991 4.77744 23.1499 5.92411 22.7873 7.30897C22.4328 8.66321 22.1322 10.3679 21.753 12.519L21.7529 12.519L21.7415 12.584L17.8518 34.6437L17.8403 34.7087C17.461 36.8598 17.1604 38.5645 17.0304 39.9584C16.8974 41.3837 16.9273 42.6149 17.289 43.798C17.8756 45.7165 19.0545 47.4001 20.6567 48.6075C21.6447 49.3521 22.7914 49.8012 24.1763 50.1638C25.5305 50.5183 27.2352 50.8189 29.3863 51.1982L29.4513 51.2096L39.6933 53.0156L39.7584 53.0271C41.9095 53.4064 43.6142 53.707 45.008 53.837C46.4333 53.9699 47.6645 53.94 48.8476 53.5783C50.7662 52.9918 52.4498 51.8129 53.6571 50.2107C54.4017 49.2226 54.8508 48.0759 55.2134 46.6911C55.5679 45.3368 55.8685 43.6321 56.2478 41.481L56.2593 41.416L60.149 19.3563L60.1604 19.2913C60.5398 17.1402 60.8403 15.4355 60.9704 14.0417C61.1033 12.6163 61.0734 11.3852 60.7117 10.202C60.1252 8.2835 58.9463 6.5999 57.3441 5.39254C56.356 4.64798 55.2093 4.19882 53.8245 3.83626C52.4702 3.48172 50.7655 3.18114 48.6144 2.80185L48.5494 2.79039L38.3074 0.984452ZM30.0302 3.29063C30.6838 3.09082 31.4741 3.03444 32.7141 3.1501C33.9716 3.2674 35.5559 3.54557 37.7865 3.93887L48.0285 5.74482C50.259 6.13812 51.8429 6.41859 53.0647 6.73845C54.2694 7.05387 54.9928 7.37715 55.5386 7.78845C56.6349 8.61454 57.4415 9.76647 57.8428 11.0792C58.0426 11.7327 58.099 12.523 57.9833 13.763C57.866 15.0205 57.5879 16.6048 57.1946 18.8354L53.3048 40.8951C52.9115 43.1256 52.6311 44.7095 52.3112 45.9313C51.9958 47.1361 51.6725 47.8594 51.2612 48.4052C50.4351 49.5015 49.2832 50.3081 47.9705 50.7094C47.3169 50.9092 46.5266 50.9656 45.2866 50.8499C44.0291 50.7326 42.4448 50.4545 40.2143 50.0612L29.9723 48.2552C27.7417 47.8619 26.1579 47.5815 24.9361 47.2616C23.7313 46.9462 23.0079 46.6229 22.4621 46.2116C21.3659 45.3855 20.5593 44.2336 20.1579 42.9209C19.9581 42.2673 19.9017 41.477 20.0174 40.237C20.1347 38.9795 20.4129 37.3952 20.8062 35.1647L24.6959 13.105C25.0892 10.8744 25.3697 9.29056 25.6895 8.06877C26.005 6.86399 26.3282 6.14063 26.7395 5.59482C27.5656 4.49856 28.7176 3.69196 30.0302 3.29063ZM13.4508 14.7904L13.3858 14.8019C11.2347 15.1811 9.52995 15.4817 8.1757 15.8363C6.79084 16.1988 5.64417 16.648 4.6561 17.3925C3.05388 18.5999 1.87501 20.2835 1.28845 22.2021C0.926728 23.3852 0.896844 24.6163 1.0298 26.0417C1.15982 27.4355 1.46041 29.1402 1.83972 31.2913L1.85118 31.3563L5.7409 53.416L5.75236 53.481L5.75237 53.481C6.13165 55.6321 6.43223 57.3368 6.78677 58.6911C7.14933 60.0759 7.59849 61.2226 8.34305 62.2107C9.55041 63.8129 11.234 64.9918 13.1526 65.5783C14.3357 65.94 15.5668 65.9699 16.9922 65.837C18.386 65.707 20.0907 65.4064 22.2418 65.0271L22.3068 65.0156L40.7605 61.7617C41.5763 61.6179 42.1211 60.8399 41.9772 60.024C41.8333 59.2082 41.0554 58.6634 40.2395 58.8073L21.7859 62.0612C19.5553 62.4545 17.971 62.7326 16.7135 62.8499C15.4735 62.9656 14.6832 62.9092 14.0297 62.7094C12.717 62.3081 11.565 61.5015 10.739 60.4052C10.3277 59.8594 10.0044 59.1361 9.68896 57.9313C9.36909 56.7095 9.08863 55.1256 8.69532 52.8951L4.8056 30.8354C4.4123 28.6048 4.13413 27.0205 4.01683 25.763C3.90116 24.523 3.95755 23.7327 4.15736 23.0792C4.55869 21.7665 5.36529 20.6145 6.46155 19.7885C7.00736 19.3772 7.73072 19.0539 8.9355 18.7385C10.1573 18.4186 11.7412 18.1381 13.9717 17.7448L14.7605 17.6057C15.5763 17.4619 16.121 16.6839 15.9772 15.8681C15.8333 15.0522 15.0554 14.5075 14.2395 14.6513L13.4508 14.7904Z" fill="url(#paint0_linear)"/>
<path fill-rule="evenodd" clip-rule="evenodd" d="M38.3074 0.984452L38.2424 0.972991C36.0913 0.593681 34.3866 0.293088 32.9928 0.16307C31.5674 0.0301142 30.3363 0.059998 29.1531 0.421719C27.2346 1.00828 25.551 2.18715 24.3436 3.78937C23.5991 4.77744 23.1499 5.92411 22.7873 7.30897C22.4328 8.66321 22.1322 10.3679 21.753 12.519L21.7529 12.519L21.7415 12.584L17.8518 34.6437L17.8403 34.7087C17.461 36.8598 17.1604 38.5645 17.0304 39.9584C16.8974 41.3837 16.9273 42.6149 17.289 43.798C17.8756 45.7165 19.0545 47.4001 20.6567 48.6075C21.6447 49.3521 22.7914 49.8012 24.1763 50.1638C25.5305 50.5183 27.2352 50.8189 29.3863 51.1982L29.4513 51.2096L39.6933 53.0156L39.7584 53.0271C41.9095 53.4064 43.6142 53.707 45.008 53.837C46.4333 53.9699 47.6645 53.94 48.8476 53.5783C50.7662 52.9918 52.4498 51.8129 53.6571 50.2107C54.4017 49.2226 54.8508 48.0759 55.2134 46.6911C55.5679 45.3368 55.8685 43.6321 56.2478 41.481L56.2593 41.416L60.149 19.3563L60.1604 19.2913C60.5398 17.1402 60.8403 15.4355 60.9704 14.0417C61.1033 12.6163 61.0734 11.3852 60.7117 10.202C60.1252 8.2835 58.9463 6.5999 57.3441 5.39254C56.356 4.64798 55.2093 4.19882 53.8245 3.83626C52.4702 3.48172 50.7655 3.18114 48.6144 2.80185L48.5494 2.79039L38.3074 0.984452ZM30.0302 3.29063C30.6838 3.09082 31.4741 3.03444 32.7141 3.1501C33.9716 3.2674 35.5559 3.54557 37.7865 3.93887L48.0285 5.74482C50.259 6.13812 51.8429 6.41859 53.0647 6.73845C54.2694 7.05387 54.9928 7.37715 55.5386 7.78845C56.6349 8.61454 57.4415 9.76647 57.8428 11.0792C58.0426 11.7327 58.099 12.523 57.9833 13.763C57.866 15.0205 57.5879 16.6048 57.1946 18.8354L53.3048 40.8951C52.9115 43.1256 52.6311 44.7095 52.3112 45.9313C51.9958 47.1361 51.6725 47.8594 51.2612 48.4052C50.4351 49.5015 49.2832 50.3081 47.9705 50.7094C47.3169 50.9092 46.5266 50.9656 45.2866 50.8499C44.0291 50.7326 42.4448 50.4545 40.2143 50.0612L29.9723 48.2552C27.7417 47.8619 26.1579 47.5815 24.9361 47.2616C23.7313 46.9462 23.0079 46.6229 22.4621 46.2116C21.3659 45.3855 20.5593 44.2336 20.1579 42.9209C19.9581 42.2673 19.9017 41.477 20.0174 40.237C20.1347 38.9795 20.4129 37.3952 20.8062 35.1647L24.6959 13.105C25.0892 10.8744 25.3697 9.29056 25.6895 8.06877C26.005 6.86399 26.3282 6.14063 26.7395 5.59482C27.5656 4.49856 28.7176 3.69196 30.0302 3.29063ZM13.4508 14.7904L13.3858 14.8019C11.2347 15.1811 9.52995 15.4817 8.1757 15.8363C6.79084 16.1988 5.64417 16.648 4.6561 17.3925C3.05388 18.5999 1.87501 20.2835 1.28845 22.2021C0.926728 23.3852 0.896844 24.6163 1.0298 26.0417C1.15982 27.4355 1.46041 29.1402 1.83972 31.2913L1.85118 31.3563L5.7409 53.416L5.75236 53.481L5.75237 53.481C6.13165 55.6321 6.43223 57.3368 6.78677 58.6911C7.14933 60.0759 7.59849 61.2226 8.34305 62.2107C9.55041 63.8129 11.234 64.9918 13.1526 65.5783C14.3357 65.94 15.5668 65.9699 16.9922 65.837C18.386 65.707 20.0907 65.4064 22.2418 65.0271L22.3068 65.0156L40.7605 61.7617C41.5763 61.6179 42.1211 60.8399 41.9772 60.024C41.8333 59.2082 41.0554 58.6634 40.2395 58.8073L21.7859 62.0612C19.5553 62.4545 17.971 62.7326 16.7135 62.8499C15.4735 62.9656 14.6832 62.9092 14.0297 62.7094C12.717 62.3081 11.565 61.5015 10.739 60.4052C10.3277 59.8594 10.0044 59.1361 9.68896 57.9313C9.36909 56.7095 9.08863 55.1256 8.69532 52.8951L4.8056 30.8354C4.4123 28.6048 4.13413 27.0205 4.01683 25.763C3.90116 24.523 3.95755 23.7327 4.15736 23.0792C4.55869 21.7665 5.36529 20.6145 6.46155 19.7885C7.00736 19.3772 7.73072 19.0539 8.9355 18.7385C10.1573 18.4186 11.7412 18.1381 13.9717 17.7448L14.7605 17.6057C15.5763 17.4619 16.121 16.6839 15.9772 15.8681C15.8333 15.0522 15.0554 14.5075 14.2395 14.6513L13.4508 14.7904Z" fill="url(#paint1_linear)"/>
<defs>
<linearGradient id="paint0_linear" x1="0.957275" y1="0.0905457" x2="44.3669" y2="55.5076" gradientUnits="userSpaceOnUse">
<stop stop-color="#17E6D4"/>
<stop offset="1" stop-color="#4560E6"/>
</linearGradient>
<linearGradient id="paint1_linear" x1="0.957275" y1="0.0905457" x2="44.3669" y2="55.5076" gradientUnits="userSpaceOnUse">
<stop stop-color="#00E4D7"/>
<stop offset="1" stop-color="#205AF1"/>
</linearGradient>
</defs>
</svg>
