<svg width="28" height="28" viewBox="0 0 28 28" fill="none" xmlns="http://www.w3.org/2000/svg">
<g clip-path="url(#clip0)" filter="url(#filter0_d)">
<path d="M13.3281 4.60957C13.7093 4.26372 14.2907 4.26372 14.6719 4.60957L16.4337 6.20796C16.6276 6.38386 16.8827 6.47673 17.1443 6.4666L19.5213 6.37459C20.0356 6.35468 20.481 6.72844 20.5507 7.23841L20.8729 9.59527C20.9083 9.85465 21.0441 10.0898 21.251 10.2502L23.131 11.7076C23.5378 12.0229 23.6388 12.5956 23.3644 13.031L22.0962 15.0436C21.9566 15.2651 21.9095 15.5324 21.9649 15.7883L22.4683 18.1132C22.5772 18.6163 22.2864 19.1198 21.7963 19.277L19.5312 20.0036C19.2819 20.0835 19.0739 20.258 18.9519 20.4896L17.8431 22.5942C17.6032 23.0496 17.0568 23.2484 16.5803 23.0538L14.3781 22.1544C14.1358 22.0554 13.8642 22.0554 13.6219 22.1544L11.4197 23.0538C10.9432 23.2484 10.3968 23.0496 10.1569 22.5942L9.04808 20.4896C8.92605 20.258 8.71806 20.0835 8.46878 20.0036L6.20367 19.277C5.71355 19.1198 5.42282 18.6163 5.53174 18.1132L6.03511 15.7883C6.09051 15.5324 6.04336 15.2651 5.90379 15.0436L4.63561 13.031C4.36121 12.5956 4.46218 12.0229 4.86898 11.7076L6.749 10.2502C6.9559 10.0898 7.09166 9.85465 7.12711 9.59527L7.44926 7.23841C7.51896 6.72844 7.96439 6.35468 8.47872 6.37459L10.8557 6.4666C11.1173 6.47673 11.3724 6.38386 11.5663 6.20796L13.3281 4.60957Z" fill="#33BBFF"/>
<path d="M9.75 14.75L12 17L17.5 11.5" stroke="white" stroke-width="2" stroke-linecap="round" stroke-linejoin="round"/>
</g>
<defs>
<filter id="filter0_d" x="0" y="0" width="28" height="28" filterUnits="userSpaceOnUse" color-interpolation-filters="sRGB">
<feFlood flood-opacity="0" result="BackgroundImageFix"/>
<feColorMatrix in="SourceAlpha" type="matrix" values="0 0 0 0 0 0 0 0 0 0 0 0 0 0 0 0 0 0 127 0"/>
<feOffset/>
<feGaussianBlur stdDeviation="2"/>
<feColorMatrix type="matrix" values="0 0 0 0 0 0 0 0 0 0 0 0 0 0 0 0 0 0 0.25 0"/>
<feBlend mode="normal" in2="BackgroundImageFix" result="effect1_dropShadow"/>
<feBlend mode="normal" in="SourceGraphic" in2="effect1_dropShadow" result="shape"/>
</filter>
<clipPath id="clip0">
<rect width="20" height="20" fill="white" transform="translate(4 4)"/>
</clipPath>
</defs>
</svg>
